<svg xmlns="http://www.w3.org/2000/svg" width="592.4" height="117.1" viewBox="0 0 592.4 117.1"><path fill="#231f20" d="M39 45.8c0-7.3 0-15-8.5-15a9.5 9.5 0 0 0-9.6 9.4c0 2.6 1.6 5.6 4 6.6-.3 6.6-5.1 9.7-10.2 9.7S3.8 53.2 3.8 45.7c0-14.1 19.3-15.9 29.9-15.9 13.1 0 26.8 4.2 26.8 17.6v26.7c0 3.8 0 10.4 5.3 10.4a8.1 8.1 0 0 0 5-1.9l.5.6C66 87.7 59.4 92 51.1 92c-6.6 0-10.9-5-12-12.7-3.3 8-12.2 12.7-21.3 12.7C6.9 92 0 86.8 0 76.8c0-18.2 26-15.1 39-24.1zm0 7.9c-8.2 5.3-14.3 5.7-14.3 18.5 0 4.4.8 11.4 7.3 11.4 4.3 0 7-4.2 7-8.5z"/><path fill="#231f20" d="M111.5 91.1v-.8c6.1 0 6.2-3.1 6.2-12.3V49.7c0-4.7-.6-10.9-7.3-10.9-2.7 0-6.7 1.5-10.1 4.5V78c0 7.3.1 12.3 6.3 12.3v.8H68.9v-.8c9 0 10-2.3 10-14.6V48c0-7.7-1.6-10.8-11.4-8.5l-.2-.8 33.2-8.9-.3 12.4c11.4-9.3 18.4-12.4 25.5-12.4 9.3 0 13.3 5.2 13.3 16.9v29c0 12.3 1.1 14.6 10.1 14.6v.8zm30.8-60.5h2.4c9.5 0 16.3-2 21.1-6s5.4-10.3 5.4-17.1h1.2v23.1h12.7v1.1h-12.7v40.1c0 4.5.1 12.5 6.4 12.5 3.2 0 5.8-1.6 8.5-3.5l.4.5c-6.3 5.5-14.3 10.7-24.2 10.7-8 0-12.5-7.3-12.5-16.3v-44h-8.7z"/><path fill="#231f20" d="M227.4 91.1v-.8c6.1 0 6.2-3.1 6.2-12.3V49.7c0-4.7-.5-10.9-7.2-10.9-2.8 0-6.7 1.5-10.2 4.5V78c0 7.3.1 12.3 6.4 12.3v.8h-37.8v-.8c9 0 10.1-2.3 10.1-14.6V18.2c0-7.7-1.6-10.8-11.4-8.5l-.3-.8L216.5 0l-.4 42.2c11.4-9.3 18.5-12.4 25.5-12.4 9.4 0 13.4 5.2 13.4 16.9v29c0 12.3 1 14.6 10 14.6v.8zm102.4-30.2c0 17.9-14.7 31.1-33.6 31.1s-33.5-13.2-33.5-31.1 14.7-31.1 33.5-31.1 33.6 13.1 33.6 31.1zm-23.5 0c0-13.1 0-30.2-10.1-30.2s-10 17.1-10 30.2 0 30.1 10 30.1 10.1-16.6 10.1-30.1z"/><path fill="#231f20" d="M329.2 91.1v-.8c9 0 10-2.3 10-14.6V18.2c0-7.7-1.6-10.8-11.4-8.5l-.2-.8 33-8.9v75.7c0 12.3 1 14.6 10 14.6v.8zm107.4-30.2C436.6 78.8 422 92 403 92s-33.4-13.2-33.4-31.1 14.6-31.1 33.4-31.1 33.6 13.1 33.6 31.1zm-23.4 0c0-13.1 0-30.2-10.2-30.2s-10 17.1-10 30.2S393 91 403 91s10.2-16.6 10.2-30.1zm27.3 39c0-5.8 4.3-8.4 8.7-8.4s8.6 2.5 8.9 7.7c-2.5.7-4 3.1-4 6s3.3 6.7 14 6.7c14.4 0 24.5-5.2 24.5-12.9 0-5.4-5-8.5-14.2-8.5l-13.2.2c-11.5 0-25.1-1.7-25.1-13.5 0-6.2 6.2-11.7 15.8-16.9-5.8-1.8-11.6-6.4-11.6-13.2 0-12.8 18.4-18.5 29.3-18.1-3.8-10.2 2.7-20.9 13.9-20.9 6.6 0 11 3.8 11 9.4s-4.2 9.5-9.6 9.8c.6-3.5-3.6-5.4-7.4-5.4s-7.9 1.8-7 7.1c12.5 0 25 7.3 25 16 0 10.6-12 18.2-28.5 18.2a50.3 50.3 0 0 1-14.2-2.4c-9.1 6.7-2.2 9.2 10.2 9.2l12-.2c11.6 0 26.6 2.5 26.6 17.8S489.2 113 467 113c-12.6 0-26.5-2.7-26.5-13.1zm23.2-54.3c0 11.4 2.7 16.7 8.6 16.7 7.6 0 7.7-9.6 7.7-15.9 0-10.9-2.9-16.5-8.5-16.5s-7.8 4.5-7.8 15.7z"/><path fill="#231f20" d="M557.3 55c4.5-9.4 8.8-23.6-4.4-23.6v-.8h26v.8c-8.1 0-12.6 7.9-20.2 23.6l-19.1 39.4c-4.6 9.7-11.1 22.7-24.6 22.7-10.4 0-15.7-7-15.7-13.6s3.9-11 11.8-11c5.8 0 11 3.4 11.4 10.6-2.8 1-5.4 3.3-5.4 6.7s2.2 4.1 4.1 4.1c4.6 0 11.8-7.2 17.8-21l-24-48.6c-4.4-8.9-7.5-12.9-14.9-12.9v-.8h43v.8c-9.1 0-6.7 7.5-3.3 14.6l10.7 23.1z"/><path fill="#4ec4d3" d="M592.4 80.9a11.1 11.1 0 1 1-11.1-11.1 11.1 11.1 0 0 1 11.1 11.1z"/></svg>