<svg xmlns="http://www.w3.org/2000/svg" width="86.1" height="61.4" viewBox="0 0 86.1 61.4"><circle cx="75.1" cy="49.6" r="11" fill="#4ec4d3" opacity=".98"/><path fill="#231f20" d="M38.5 15.8c0-7.1 0-14.8-8.4-14.8a9.5 9.5 0 0 0-9.5 9.3 7.5 7.5 0 0 0 4 6.6c-.3 6.5-5 9.5-10.1 9.5S3.8 23.1 3.8 15.7C3.8 1.8 22.8 0 33.3 0c13 0 26.4 4.2 26.4 17.4v26.4c0 3.7 0 10.2 5.3 10.2a8 8 0 0 0 5-1.8l.5.6c-5.3 4.4-11.8 8.6-20 8.6-6.5 0-10.8-4.9-11.9-12.5-3.3 8-12 12.5-21 12.5C6.8 61.4 0 56.3 0 46.5c0-18 25.6-14.9 38.5-23.8zm0 7.8c-8.1 5.2-14.1 5.7-14.1 18.4 0 4.3.8 11.2 7.2 11.2 4.3 0 6.9-4.2 6.9-8.4z" style="isolation:isolate"/></svg>