<svg xmlns="http://www.w3.org/2000/svg" width="256" height="256" viewBox="0 0 256 256"><path fill="#acd037" d="M255.4 74.9q.6 15.9.6 53.1t-.9 53.4c-.5 10.9-2.1 20.3-4.8 28.3a66.6 66.6 0 0 1-40.6 40.6c-8 2.7-17.4 4.3-28.3 4.8s-28.6.9-53.4.9-42.6-.3-53.4-.9-20.3-2.3-28.3-5.4a61.5 61.5 0 0 1-24.9-15.1 67.6 67.6 0 0 1-15.7-24.9c-2.7-8-4.3-17.4-4.8-28.3S0 152.8 0 128s.3-42.6.9-53.4S3 54.3 5.7 46.3A66.6 66.6 0 0 1 46.3 5.7C54.3 3 63.7 1.4 74.6.9S103.2 0 128 0s42.6.3 53.4.9 20.3 2.1 28.3 4.8a66.6 66.6 0 0 1 40.6 40.6c2.7 8 4.4 17.5 5.1 28.6zM228 203.4c2.3-6.4 3.8-16.7 4.6-30.8.4-8.4.5-20.2.5-35.5v-18.2c0-15.7-.1-27.5-.5-35.5-.8-14.4-2.3-24.7-4.6-30.8A41.5 41.5 0 0 0 203.4 28c-6.1-2.3-16.4-3.8-30.8-4.6-8.4-.4-20.2-.5-35.5-.5h-18.2c-15.3 0-27.1.1-35.5.5-14.1.8-24.4 2.3-30.8 4.6A41.5 41.5 0 0 0 28 52.6c-2.3 6.1-3.8 16.4-4.6 30.8-.4 8.4-.5 20.2-.5 35.5v18.2c0 15.3.1 27.1.5 35.5.8 14.1 2.3 24.4 4.6 30.8 5 11.8 13.1 20 24.6 24.6 6.4 2.3 16.7 3.8 30.8 4.6 8.4.4 20.2.5 35.5.5h18.2c15.7 0 27.5-.1 35.5-.5 14.4-.8 24.7-2.3 30.8-4.6 11.8-5 20-13.1 24.6-24.6zM128 62.3a64.1 64.1 0 0 1 32.9 8.8 65.8 65.8 0 0 1 24 24 65.9 65.9 0 0 1 0 65.8 65.8 65.8 0 0 1-24 24 65.9 65.9 0 0 1-65.8 0 65.8 65.8 0 0 1-24-24 65.9 65.9 0 0 1 0-65.8 65.8 65.8 0 0 1 24-24 64.1 64.1 0 0 1 32.9-8.8zm0 108.6a43 43 0 0 0 42.9-42.9A43 43 0 0 0 128 85.1 43 43 0 0 0 85.1 128a43 43 0 0 0 42.9 42.9zm84-111.5a14.4 14.4 0 0 0-4.6-10.8 14.4 14.4 0 0 0-10.8-4.6 15.7 15.7 0 0 0-15.5 15.4 15.7 15.7 0 0 0 15.5 15.5 13.9 13.9 0 0 0 10.5-4.6 17.9 17.9 0 0 0 4.9-10.9z"/></svg>