<svg xmlns="http://www.w3.org/2000/svg" width="256" height="256" viewBox="0 0 256 256"><path fill="#4ec4d3" d="M228.6 0A26.5 26.5 0 0 1 248 8a26.5 26.5 0 0 1 8 19.4v201.2a27.3 27.3 0 0 1-27.4 27.4H27.4A26.5 26.5 0 0 1 8 248a26.5 26.5 0 0 1-8-19.4V27.4A26.5 26.5 0 0 1 8 8a26.5 26.5 0 0 1 19.4-8zm-28 90.9a85 85 0 0 0 18.8-19.5 71.9 71.9 0 0 1-21.7 5.7 38.6 38.6 0 0 0 16.6-20.5 71.7 71.7 0 0 1-24 9.1c-7.3-8-16.2-12-26.9-12a36.6 36.6 0 0 0-20.8 6.3 37.4 37.4 0 0 0-14 16.9c-3.1 7-3.6 14.7-1.7 23.1a103.9 103.9 0 0 1-43.5-11.7 115.3 115.3 0 0 1-34.3-27.7A35.6 35.6 0 0 0 44 79.1a37.6 37.6 0 0 0 17.1 31.8 38.3 38.3 0 0 1-17.1-5.2v.6a36.6 36.6 0 0 0 8.6 24 38 38 0 0 0 21.7 13.1 49 49 0 0 1-17.2.6 35.3 35.3 0 0 0 13.2 18.6 36.1 36.1 0 0 0 21.7 7.1 73.2 73.2 0 0 1-46.3 16h-9.1a105.5 105.5 0 0 0 57.7 16.6q32.6 0 58.3-16.6 22.8-14.8 36-40.6a109.6 109.6 0 0 0 12-49.7z"/></svg>