<svg xmlns="http://www.w3.org/2000/svg"><symbol id="adobe-portfolio-icon" viewBox="0 0 256 256"><circle cx="190.8" cy="162.6" r="29.6" fill="#acd037"/><path d="M93.8 175.6H74.2V80.4h30.4c22.5 0 35.2 11 35.2 30.4s-12.9 32.1-33.9 32.1H93.8zm8.4-48.8c11.2 0 17.8-5.4 17.8-15s-6.7-15.3-17.4-15.3h-8.8v30.3zm70.9 48.8H155v-50.8h-7.3v-15.3h7.3v-3.7c0-17.7 8.7-25.9 26.8-25.4v16.7c-6.3.7-8.7 3.2-8.7 8.7v3.7h8.7v15.3h-8.7z"/></symbol><symbol id="close-icon" viewBox="0 0 256 256"><path d="M142.2 128l32.3-32.3a10 10 0 0 0-14.1-14.1l-32.3 32.3-32.4-32.4a10 10 0 0 0-14.1 14.1L114 128l-32.4 32.4a10 10 0 0 0 0 14.1 10 10 0 0 0 14.1 0l32.4-32.4 32.3 32.3a10 10 0 0 0 14.1 0 10 10 0 0 0 0-14.1z"/></symbol><symbol id="behance-icon" viewBox="0 0 256 256"><circle cx="196.3" cy="154" r="29.6" fill="#6482c1"/><path d="M100.4 86.5a40.1 40.1 0 0 1 10.6 1.2 21.3 21.3 0 0 1 8.2 3.2 13.7 13.7 0 0 1 5.2 6.2 22.4 22.4 0 0 1 1.8 9.3c0 4.2-.9 7.7-2.9 10.3a22.5 22.5 0 0 1-8.2 6.8 19.1 19.1 0 0 1 11.1 7.6 22.6 22.6 0 0 1 3.9 12.9 23.3 23.3 0 0 1-2.4 10.6 19.6 19.6 0 0 1-6.4 7.3 32.2 32.2 0 0 1-9.4 4.1 42.4 42.4 0 0 1-10.6 1.5H62v-81zm-2.3 32.8a13.2 13.2 0 0 0 7.9-2.3c2-1.4 2.9-4.1 2.9-7.3a10.6 10.6 0 0 0-.9-4.7 8 8 0 0 0-2.6-2.9 14.4 14.4 0 0 0-3.8-1.5 23.7 23.7 0 0 0-4.7-.3H79.8v19.1h18.3zm.8 34.6a24.5 24.5 0 0 0 5-.6 8.8 8.8 0 0 0 4.1-1.7 10.3 10.3 0 0 0 3-3.2 16.6 16.6 0 0 0 1.1-5.3c0-4.2-1.1-7.1-3.5-9.1s-5.6-2.6-9.4-2.6H79.9V154h19zm56.6-.3c2.4 2.4 5.9 3.6 10.6 3.6a15.4 15.4 0 0 0 8.5-2.4 12 12 0 0 0 4.4-5.2h14.4c-2.4 7-5.9 12-10.6 15.2a31.7 31.7 0 0 1-17 4.7 35.8 35.8 0 0 1-12.6-2.3 23.4 23.4 0 0 1-9.4-6.5 23.9 23.9 0 0 1-5.9-9.7 35.8 35.8 0 0 1-2-12.6 35.3 35.3 0 0 1 2-12.3 34.3 34.3 0 0 1 6.2-10 31 31 0 0 1 9.4-6.5 34.1 34.1 0 0 1 12.3-2.3 28.2 28.2 0 0 1 13.2 2.9 23.8 23.8 0 0 1 9 7.9 34 34 0 0 1 5.3 11.2 60.1 60.1 0 0 1 .6 12.9h-42.5c0 4.7 1.8 9.1 4.1 11.4zm18.5-30.8c-2-2-5.3-3.2-9.1-3.2a14.8 14.8 0 0 0-6.4 1.4 15.2 15.2 0 0 0-4.1 3.3 7.7 7.7 0 0 0-2.1 4.1 18.9 18.9 0 0 0-.5 3.8h26.3c-.6-4.4-2-7.3-4.1-9.4zM148.2 92H181v7.91h-32.8z"/></symbol><symbol id="behance-icon-hover" viewBox="0 0 256 256"><circle cx="128" cy="128" r="98.1" fill="#6482c1"/><path d="M100.4 86.5a40.1 40.1 0 0 1 10.6 1.2 21.3 21.3 0 0 1 8.2 3.2 13.7 13.7 0 0 1 5.2 6.2 22.4 22.4 0 0 1 1.8 9.3c0 4.2-.9 7.7-2.9 10.3a22.5 22.5 0 0 1-8.2 6.8 19.1 19.1 0 0 1 11.1 7.6 22.6 22.6 0 0 1 3.9 12.9 23.3 23.3 0 0 1-2.4 10.6 19.6 19.6 0 0 1-6.4 7.3 32.2 32.2 0 0 1-9.4 4.1 42.4 42.4 0 0 1-10.6 1.5H62v-81zm-2.3 32.8a13.2 13.2 0 0 0 7.9-2.3c2-1.4 2.9-4.1 2.9-7.3a10.6 10.6 0 0 0-.9-4.7 8 8 0 0 0-2.6-2.9 14.4 14.4 0 0 0-3.8-1.5 23.7 23.7 0 0 0-4.7-.3H79.8v19.1h18.3zm.8 34.6a24.5 24.5 0 0 0 5-.6 8.8 8.8 0 0 0 4.1-1.7 10.3 10.3 0 0 0 3-3.2 16.6 16.6 0 0 0 1.1-5.3c0-4.2-1.1-7.1-3.5-9.1s-5.6-2.6-9.4-2.6H79.9V154h19zm56.6-.3c2.4 2.4 5.9 3.6 10.6 3.6a15.4 15.4 0 0 0 8.5-2.4 12 12 0 0 0 4.4-5.2h14.4c-2.4 7-5.9 12-10.6 15.2a31.7 31.7 0 0 1-17 4.7 35.8 35.8 0 0 1-12.6-2.3 23.4 23.4 0 0 1-9.4-6.5 23.9 23.9 0 0 1-5.9-9.7 35.8 35.8 0 0 1-2-12.6 35.3 35.3 0 0 1 2-12.3 34.3 34.3 0 0 1 6.2-10 31 31 0 0 1 9.4-6.5 34.1 34.1 0 0 1 12.3-2.3 28.2 28.2 0 0 1 13.2 2.9 23.8 23.8 0 0 1 9 7.9 34 34 0 0 1 5.3 11.2 60.1 60.1 0 0 1 .6 12.9h-42.5c0 4.7 1.8 9.1 4.1 11.4zm18.5-30.8c-2-2-5.3-3.2-9.1-3.2a14.8 14.8 0 0 0-6.4 1.4 15.2 15.2 0 0 0-4.1 3.3 7.7 7.7 0 0 0-2.1 4.1 18.9 18.9 0 0 0-.5 3.8h26.3c-.6-4.4-2-7.3-4.1-9.4zM148.2 92H181v7.91h-32.8z"/></symbol><symbol id="adobe-portfolio-icon-hover" viewBox="0 0 256 256"><circle cx="128" cy="128" r="98.1" fill="#acd037"/><path d="M93.8 175.6H74.2V80.4h30.4c22.5 0 35.2 11 35.2 30.4s-12.9 32.1-33.9 32.1H93.8zm8.4-48.8c11.2 0 17.8-5.4 17.8-15s-6.7-15.3-17.4-15.3h-8.8v30.3zm70.9 48.8H155v-50.8h-7.3v-15.3h7.3v-3.7c0-17.7 8.7-25.9 26.8-25.4v16.7c-6.3.7-8.7 3.2-8.7 8.7v3.7h8.7v15.3h-8.7z"/></symbol><symbol id="email-icon" viewBox="0 0 256 256"><circle cx="190.8" cy="162.6" r="29.6" fill="#6482c1"/><path d="M61.8 92.7v70.6a.9.9 0 0 0 1.4.6l41.7-35.3a.9.9 0 0 0 0-1.2L63.2 92.1a.9.9 0 0 0-1.4.6zm122.4-8.3H71.8a.8.8 0 0 0-.5 1.4l52.2 44.3a7.2 7.2 0 0 0 9 0l52.2-44.3a.8.8 0 0 0-.5-1.4zm10 78.9V92.7a.9.9 0 0 0-1.4-.6l-41.7 35.3a.9.9 0 0 0 0 1.2l41.7 35.3a.9.9 0 0 0 1.4-.6zm-70.1-19.7l-10.2-8.6a.8.8 0 0 0-1.1 0l-41.5 35.2a.8.8 0 0 0 .5 1.4h112.4a.8.8 0 0 0 .5-1.4L143.2 135a.8.8 0 0 0-1.1 0l-10.2 8.6a5.8 5.8 0 0 1-7.8 0z"/></symbol><symbol id="back-arrow-icon" viewBox="0 0 256 256"><path d="M128 225.8a97.8 97.8 0 1 1 97.8-97.8 97.9 97.9 0 0 1-97.8 97.8zm0-175.6a77.8 77.8 0 1 0 77.8 77.8A77.9 77.9 0 0 0 128 50.2z"/><path d="M167.4 118h-54.6L135 95.8a10 10 0 0 0 0-14.1 10.1 10.1 0 0 0-14.2 0l-39.2 39.2h-.1l-.6.7-.3.3-.3.4c-.1.2-.2.3-.2.5l-.3.4c-.1.1-.1.3-.2.4l-.2.5c-.1.1-.1.3-.2.4s-.1.3-.1.5a.6.6 0 0 0-.1.4c-.1.2-.1.4-.2.5v.6a.6.6 0 0 0-.1.4 3.8 3.8 0 0 1-.1 1 3.8 3.8 0 0 1 .1 1 .6.6 0 0 0 .1.4v.6c.1.1.1.3.2.5a.6.6 0 0 0 .1.4c0 .2.1.3.1.5l.2.4.2.5.2.4.3.4c0 .2.1.3.2.5l.3.4.3.3.6.7h.1l39.2 39.2a10 10 0 1 0 14.2-13.9L112.8 138h54.6a10 10 0 0 0 0-20z"/></symbol><symbol id="face-icon" viewBox="0 0 256 256"><path d="M215.8 128.1q0 36.3-25.7 62t-62 25.7q-36.4 0-62.1-25.7t-25.8-62q0-36.6 25.8-62.2t62.1-25.7q36.3 0 62 25.7t25.7 62.2zm-12.7 0q0-31.2-22-53.1t-53-22Q96.9 53 75 75t-22 53.1c0 20.6 7.3 38.3 22 52.9s32.3 22 53.1 22 38.4-7.3 53-22 22-32.3 22-52.9zm-97.6-18.2a11 11 0 0 1-3.2 7.8 10.8 10.8 0 0 1-8 3.3 11.2 11.2 0 0 1 0-22.3 11.1 11.1 0 0 1 11.2 11.2zm-17.9 46.4l8.5-5c7.3 13.3 17.9 19.9 32 19.9s24.6-6.6 31.8-19.9l8.6 5c-4.5 8.7-10.2 15.4-17 20s-14.5 6.8-23.4 6.8-16.9-2.2-23.6-6.8-12.3-11.3-16.9-20zm85.2-46.4a11 11 0 0 1-3.2 7.8 11.2 11.2 0 0 1-19.1-7.8 10.6 10.6 0 0 1 3.3-7.9 11.1 11.1 0 0 1 15.8 0 10.9 10.9 0 0 1 3.2 7.9z"/></symbol><symbol id="facebook-icon-hover" viewBox="0 0 256 256"><circle cx="128" cy="128" r="98.1" fill="#6482c1"/><path d="M139.6 194.1h-25.2v-70.5h-10.1v-21.2h10.1v-5.2c0-24.6 12.1-36.1 37.3-35.3v23.2c-8.7 1-12.1 4.4-12.1 12.1v5.2h12.1v21.2h-12.1z"/></symbol><symbol id="facebook-icon" viewBox="0 0 256 256"><circle cx="149.5" cy="178" r="29.6" fill="#6482c1"/><path d="M139.6 194.1h-25.2v-70.5h-10.1v-21.2h10.1v-5.2c0-24.6 12.1-36.1 37.3-35.3v23.2c-8.7 1-12.1 4.4-12.1 12.1v5.2h12.1v21.2h-12.1z"/></symbol><symbol id="email-icon-hover" viewBox="0 0 256 256"><circle cx="128" cy="128" r="98.1" fill="#6482c1"/><path d="M61.8 92.7v70.6a.9.9 0 0 0 1.4.6l41.7-35.3a.9.9 0 0 0 0-1.2L63.2 92.1a.9.9 0 0 0-1.4.6zm122.4-8.3H71.8a.8.8 0 0 0-.5 1.4l52.2 44.3a7.2 7.2 0 0 0 9 0l52.2-44.3a.8.8 0 0 0-.5-1.4zm10 78.9V92.7a.9.9 0 0 0-1.4-.6l-41.7 35.3a.9.9 0 0 0 0 1.2l41.7 35.3a.9.9 0 0 0 1.4-.6zm-70.1-19.7l-10.2-8.6a.8.8 0 0 0-1.1 0l-41.5 35.2a.8.8 0 0 0 .5 1.4h112.4a.8.8 0 0 0 .5-1.4L143.2 135a.8.8 0 0 0-1.1 0l-10.2 8.6a5.8 5.8 0 0 1-7.8 0z"/></symbol><symbol id="forward-arrow-icon" viewBox="0 0 256 256"><path d="M128 225.8a97.8 97.8 0 1 1 97.8-97.8 97.9 97.9 0 0 1-97.8 97.8zm0-175.6a77.8 77.8 0 1 0 77.8 77.8A77.9 77.9 0 0 0 128 50.2z"/><path d="M175.1 134.3l.2-.2a1 1 0 0 1 .4-.5c0-.1 0-.2.1-.2a4.3 4.3 0 0 1 .4-.7 3 3 0 0 0 .4-.8l.3-.8.3-.8v-.3c0-.2.1-.5.1-.7s.1-.7.1-1-.1-.7-.1-1-.1-.5-.1-.7v-.6l-.3-.8-.3-.8a3 3 0 0 0-.4-.8 4.3 4.3 0 0 1-.4-.7c-.1 0-.1-.1-.1-.2a1 1 0 0 1-.4-.5l-.2-.2-.5-.6-.2-.2-39.2-39.5a10.1 10.1 0 0 0-14.2 0 10 10 0 0 0 0 14.1l22.2 22.2H88.6a10 10 0 0 0 0 20h54.6L121 160.2a10 10 0 1 0 14.2 14.1l39.2-39.2.2-.2z"/></symbol><symbol id="github-icon-hover" viewBox="0 0 256 256"><circle cx="128" cy="128" r="98.1" fill="#979796"/><path d="M144 196.1v-20.7c0-6.5.9-13.3-5-19.4l5-1.3c21.6-5.2 30.6-25.4 20.2-45.1a26 26 0 0 1-1.8-8.7c-.5-4.2-.6-8.3-1-14-5.5 2.3-9.5 4.3-13.8 5.7a27.3 27.3 0 0 1-8.9 1.5c-7.1.2-14.1.2-21.2 0a33.9 33.9 0 0 1-8.9-1.5c-4.2-1.5-8.3-3.5-13.1-5.5a29.4 29.4 0 0 0-1.7 7.8 44.2 44.2 0 0 1-3.9 20.2c-6.7 19 3.1 35.3 22.8 39.8 1.2.3 2.3.7 3.9 1-1.3 2.8-2.3 5.4-3.5 7.8s-6.8 3.5-10.1.4c-1.5-1.7-3-3.5-4.3-5.3a13.9 13.9 0 0 0-12.6-5.8c0 3.7-.7 7.3 3.9 9 1.2.4 2.1 1.9 2.9 3.1a17.4 17.4 0 0 0 18.7 8.8v22c-30.5-6.1-54.7-40.6-51.6-73.4a68.2 68.2 0 0 1 135.9-.8c3.5 34.1-19.8 66.9-51.9 74.4z"/></symbol><symbol id="github-icon" viewBox="0 0 256 256"><circle cx="176" cy="178.8" r="29.6" fill="#979796"/><path d="M144 196.1v-20.7c0-6.5.9-13.3-5-19.4l5-1.3c21.6-5.2 30.6-25.4 20.2-45.1a26 26 0 0 1-1.8-8.7c-.5-4.2-.6-8.3-1-14-5.5 2.3-9.5 4.3-13.8 5.7a27.3 27.3 0 0 1-8.9 1.5c-7.1.2-14.1.2-21.2 0a33.9 33.9 0 0 1-8.9-1.5c-4.2-1.5-8.3-3.5-13.1-5.5a29.4 29.4 0 0 0-1.7 7.8 44.2 44.2 0 0 1-3.9 20.2c-6.7 19 3.1 35.3 22.8 39.8 1.2.3 2.3.7 3.9 1-1.3 2.8-2.3 5.4-3.5 7.8s-6.8 3.5-10.1.4c-1.5-1.7-3-3.5-4.3-5.3a13.9 13.9 0 0 0-12.6-5.8c0 3.7-.7 7.3 3.9 9 1.2.4 2.1 1.9 2.9 3.1a17.4 17.4 0 0 0 18.7 8.8v22c-30.5-6.1-54.7-40.6-51.6-73.4a68.2 68.2 0 0 1 135.9-.8c3.5 34.1-19.8 66.9-51.9 74.4z"/></symbol><symbol id="instagram-icon-hover" viewBox="0 0 256 256"><circle cx="128" cy="128" r="98.1" fill="#acd037"/><path d="M128 114.9a13.1 13.1 0 1 0 13.1 13.1 13.1 13.1 0 0 0-13.1-13.1z"/><path d="M157.1 77.8H98.9a21.2 21.2 0 0 0-21.1 21.1v58.2a21.2 21.2 0 0 0 21.1 21.1h58.2a21.2 21.2 0 0 0 21.1-21.1V98.9a21.2 21.2 0 0 0-21.1-21.1zM128 154.1a26.1 26.1 0 1 1 26.1-26.1 26.1 26.1 0 0 1-26.1 26.1zm29.3-45.7a8.1 8.1 0 1 1 8.1-8.1 8.1 8.1 0 0 1-8.1 8.1z"/><path d="M128 141.1a13.1 13.1 0 1 1 13.1-13.1 13.1 13.1 0 0 1-13.1 13.1z"/></symbol><symbol id="hamburger-icon" viewBox="0 0 256 256"><path d="M183.7 94.2H72.3a10 10 0 0 1 0-20h111.4a10 10 0 0 1 0 20zm0 43.8H72.3a10 10 0 0 1 0-20h111.4a10 10 0 0 1 0 20zm0 43.8H72.3a10 10 0 0 1 0-20h111.4a10 10 0 0 1 0 20z"/></symbol><symbol id="instagram-icon" viewBox="0 0 256 256"><circle cx="176" cy="178.2" r="29.6" fill="#acd037"/><path d="M128 114.9a13.1 13.1 0 1 0 13.1 13.1 13.1 13.1 0 0 0-13.1-13.1z"/><path d="M157.1 77.8H98.9a21.2 21.2 0 0 0-21.1 21.1v58.2a21.2 21.2 0 0 0 21.1 21.1h58.2a21.2 21.2 0 0 0 21.1-21.1V98.9a21.2 21.2 0 0 0-21.1-21.1zM128 154.1a26.1 26.1 0 1 1 26.1-26.1 26.1 26.1 0 0 1-26.1 26.1zm29.3-45.7a8.1 8.1 0 1 1 8.1-8.1 8.1 8.1 0 0 1-8.1 8.1z"/><path d="M128 141.1a13.1 13.1 0 1 1 13.1-13.1 13.1 13.1 0 0 1-13.1 13.1z"/></symbol><symbol id="linkedin-icon" viewBox="0 0 256 256"><circle cx="181.4" cy="172.1" r="29.6" fill="#6482c1"/><path d="M169.6 174.1c.6-15.1.5-30.3-.3-45.4s-16.2-22.4-30.5-18.2c-1.7.5-4.3 1.7-5.1 1-6.2-5.4-12.9-.8-19.1-2.4v65h18.2v-37A9.1 9.1 0 0 1 151 136a47.1 47.1 0 0 1 .3 7.5v30.6zm-65.4 0v-64.6H86v49.2c-.1 17.2-.1 17.2 18.2 15.3zM86.3 99h18.2V81.2H86.3z"/></symbol><symbol id="top-icon" viewBox="0 0 256 256"><path d="M167.8 188a10.4 10.4 0 0 1-7.4-3l-31.8-31.8-33 31.9A10.5 10.5 0 0 1 81 170l40.5-39.1a10.5 10.5 0 0 1 14.7.1l39 39.1a10.6 10.6 0 0 1 0 14.9 10.4 10.4 0 0 1-7.4 3zm0-74.2H88.3a10.5 10.5 0 0 1 0-21h79.5a10.5 10.5 0 0 1 0 21z"/></symbol><symbol id="linkedin-icon-hover" viewBox="0 0 256 256"><circle cx="128" cy="128" r="98.1" fill="#6482c1"/><path d="M169.6 174.1c.6-15.1.5-30.3-.3-45.4s-16.2-22.4-30.5-18.2c-1.7.5-4.3 1.7-5.1 1-6.2-5.4-12.9-.8-19.1-2.4v65h18.2v-37A9.1 9.1 0 0 1 151 136a47.1 47.1 0 0 1 .3 7.5v30.6zm-65.4 0v-64.6H86v49.2c-.1 17.2-.1 17.2 18.2 15.3zM86.3 99h18.2V81.2H86.3z"/></symbol><symbol id="twitter-icon-hover" viewBox="0 0 256 256"><circle cx="126.5" cy="121.4" r="98.1" fill="#4dc4d3"/><path d="M99.4 151.1c-7.5-5.9-12.3-15.6-14.5-21.6s-4.5-29.2 1.3-42.8c9.4 12 21 20.2 36.7 22.4 0-2 .2-4 .4-6 2.7-15.2 21.3-23 35-14.3a7.2 7.2 0 0 0 7.6.9c3.2-1.4 6.6-2.3 10.7-3.7L173 96.8h6.8c-2.6 3.6-4.6 6.8-7 9.6a19.7 19.7 0 0 0-4.6 13.9c0 13.9-3.5 26.7-14 36.6a49.8 49.8 0 0 1-29.1 13 68 68 0 0 1-48.9-10.6z"/></symbol><symbol id="twitter-icon" viewBox="0 0 256 256"><circle cx="176" cy="162.5" r="29.6" fill="#4dc4d3"/><path d="M99.4 151.1c-7.5-5.9-12.3-15.6-14.5-21.6s-4.5-29.2 1.3-42.8c9.4 12 21 20.2 36.7 22.4 0-2 .2-4 .4-6 2.7-15.2 21.3-23 35-14.3a7.2 7.2 0 0 0 7.6.9c3.2-1.4 6.6-2.3 10.7-3.7L173 96.8h6.8c-2.6 3.6-4.6 6.8-7 9.6a19.7 19.7 0 0 0-4.6 13.9c0 13.9-3.5 26.7-14 36.6a49.8 49.8 0 0 1-29.1 13 68 68 0 0 1-48.9-10.6z"/></symbol><symbol id="website-icon-hover" viewBox="0 0 256 256"><circle cx="128" cy="128" r="98.1" fill="#4dc4d3"/><path d="M187.1 66.2H68.9a12.3 12.3 0 0 0-12.3 12.3v53.2A12.3 12.3 0 0 0 68.9 144h39.3a2.8 2.8 0 0 1 2.8 2.8v24.9a2.9 2.9 0 0 1-2.8 2.8H90a3.6 3.6 0 0 0-3.6 3.6v8a3.7 3.7 0 0 0 3.6 3.7h76a3.7 3.7 0 0 0 3.6-3.7v-8a3.6 3.6 0 0 0-3.6-3.6h-18.2a2.9 2.9 0 0 1-2.8-2.8v-24.9a2.8 2.8 0 0 1 2.8-2.8h39.3a12.3 12.3 0 0 0 12.3-12.3V78.5a12.3 12.3 0 0 0-12.3-12.3zm-.5 60.6a5.4 5.4 0 0 1-5.4 5.4H74.8a5.4 5.4 0 0 1-5.4-5.4V82.7a5.4 5.4 0 0 1 5.4-5.4h106.4a5.4 5.4 0 0 1 5.4 5.4z"/></symbol><symbol id="vimeo-icon" viewBox="0 0 256 256"><circle cx="181.4" cy="157.6" r="29.6" fill="#acd037"/><path d="M183.7 111a113.1 113.1 0 0 1-23.9 41.2 156.3 156.3 0 0 1-26.2 24.6 14.6 14.6 0 0 1-20.3-1.5 31.4 31.4 0 0 1-8.3-13.9l-13.4-42.3q-1.5-4.5-3.3-9a3.5 3.5 0 0 0-4-2.6l-.9.4c-3.1 1.1-6 2.7-9.2 4.2l-4.5-5.8a107.2 107.2 0 0 1 28.2-24.2 29 29 0 0 1 7-2.4 9.8 9.8 0 0 1 11.1 5.6 46.5 46.5 0 0 1 5.2 16.3 232.7 232.7 0 0 0 7.7 33.8 53.8 53.8 0 0 0 2.4 5.5c1.5 2.8 3.1 3.1 5.6 1a21 21 0 0 0 4-4.4c3.5-5.5 7-11.1 10.2-16.7a19.1 19.1 0 0 0 1.8-7.1 8.4 8.4 0 0 0-6.5-9.9 9.2 9.2 0 0 0-5.2.6l-4.5 1.9c.5-1.9.9-3.4 1.4-4.9a33.3 33.3 0 0 1 31.4-22.3A16.3 16.3 0 0 1 186.2 95v.8a46.1 46.1 0 0 1-2.5 15.2z"/></symbol><symbol id="vimeo-icon-hover" viewBox="0 0 256 256"><circle cx="128" cy="128" r="98.1" fill="#acd037"/><path d="M183.7 111a113.1 113.1 0 0 1-23.9 41.2 156.3 156.3 0 0 1-26.2 24.6 14.6 14.6 0 0 1-20.3-1.5 31.4 31.4 0 0 1-8.3-13.9l-13.4-42.3q-1.5-4.5-3.3-9a3.5 3.5 0 0 0-4-2.6l-.9.4c-3.1 1.1-6 2.7-9.2 4.2l-4.5-5.8a107.2 107.2 0 0 1 28.2-24.2 29 29 0 0 1 7-2.4 9.8 9.8 0 0 1 11.1 5.6 46.5 46.5 0 0 1 5.2 16.3 232.7 232.7 0 0 0 7.7 33.8 53.8 53.8 0 0 0 2.4 5.5c1.5 2.8 3.1 3.1 5.6 1a21 21 0 0 0 4-4.4c3.5-5.5 7-11.1 10.2-16.7a19.1 19.1 0 0 0 1.8-7.1 8.4 8.4 0 0 0-6.5-9.9 9.2 9.2 0 0 0-5.2.6l-4.5 1.9c.5-1.9.9-3.4 1.4-4.9a33.3 33.3 0 0 1 31.4-22.3A16.3 16.3 0 0 1 186.2 95v.8a46.1 46.1 0 0 1-2.5 15.2z"/></symbol><symbol id="website-icon" viewBox="0 0 256 256"><circle cx="190.8" cy="167.6" r="29.6" fill="#4dc4d3"/><path d="M187.1 66.2H68.9a12.3 12.3 0 0 0-12.3 12.3v53.2A12.3 12.3 0 0 0 68.9 144h39.3a2.8 2.8 0 0 1 2.8 2.8v24.9a2.9 2.9 0 0 1-2.8 2.8H90a3.6 3.6 0 0 0-3.6 3.6v8a3.7 3.7 0 0 0 3.6 3.7h76a3.7 3.7 0 0 0 3.6-3.7v-8a3.6 3.6 0 0 0-3.6-3.6h-18.2a2.9 2.9 0 0 1-2.8-2.8v-24.9a2.8 2.8 0 0 1 2.8-2.8h39.3a12.3 12.3 0 0 0 12.3-12.3V78.5a12.3 12.3 0 0 0-12.3-12.3zm-.5 60.6a5.4 5.4 0 0 1-5.4 5.4H74.8a5.4 5.4 0 0 1-5.4-5.4V82.7a5.4 5.4 0 0 1 5.4-5.4h106.4a5.4 5.4 0 0 1 5.4 5.4z"/></symbol><symbol id="youtube-icon" viewBox="0 0 256 256"><circle cx="176" cy="166.5" r="29.6" fill="#979796"/><path d="M128.1 85.6H165c12.3 0 18.5 6.6 18.6 18.5v47.8c0 12-6.6 18.5-18.6 18.6H91.2c-12.3-.1-18.7-6.6-18.8-18.8v-47.8c0-11.7 6.7-18.3 18.4-18.3zm-16.3 20.7v44.1l39.1-22.4z"/><path d="M118.6 139v-21.5l19 10.6z"/></symbol><symbol id="youtube-icon-hover" viewBox="0 0 256 256"><circle cx="128" cy="128" r="98.1" fill="#979796"/><path d="M128.1 85.6H165c12.3 0 18.5 6.6 18.6 18.5v47.8c0 12-6.6 18.5-18.6 18.6H91.2c-12.3-.1-18.7-6.6-18.8-18.8v-47.8c0-11.7 6.7-18.3 18.4-18.3zm-16.3 20.7v44.1l39.1-22.4z"/><path d="M118.6 139v-21.5l19 10.6z"/></symbol></svg>